<?xml version="1.0" standalone="no"?>
<!DOCTYPE svg PUBLIC "-//W3C//DTD SVG 20010904//EN"
 "http://www.w3.org/TR/2001/REC-SVG-20010904/DTD/svg10.dtd">
<svg version="1.0" xmlns="http://www.w3.org/2000/svg"
 width="131.000000pt" height="108.000000pt" viewBox="0 0 131.000000 108.000000"
 preserveAspectRatio="xMidYMid meet">

<g transform="translate(0.000000,108.000000) scale(0.100000,-0.100000)"
fill="#000000" stroke="none">
<path d="M5 1069 c-4 -5 14 -41 40 -80 25 -38 60 -99 76 -135 l30 -67 -36 -80
c-61 -132 -78 -213 -79 -367 -1 -116 2 -144 22 -201 24 -71 78 -139 109 -139
31 0 78 55 97 111 39 121 25 379 -30 576 l-26 91 36 55 c61 92 161 169 200
154 27 -11 38 -57 32 -128 -8 -91 -37 -180 -102 -311 -30 -61 -54 -121 -54
-133 0 -60 58 -89 208 -101 l83 -7 -7 -86 c-11 -141 -11 -136 14 -139 18 -3
22 1 22 25 1 28 1 28 21 -9 11 -22 29 -40 43 -44 25 -6 74 14 95 40 8 9 19 16
27 16 16 0 59 131 81 252 l17 88 19 -30 c20 -31 20 -62 1 -206 -6 -46 -4 -53
17 -68 13 -9 40 -16 61 -16 30 0 37 -4 40 -23 4 -32 42 -30 46 3 4 24 4 23 17
-8 28 -66 95 -64 155 5 34 38 37 51 14 60 -10 3 -29 -8 -53 -31 -42 -41 -56
-44 -70 -17 -14 26 -31 178 -31 284 0 80 -2 87 -20 87 -22 0 -24 -9 -40 -185
-6 -65 -12 -120 -13 -121 -1 -1 -17 -5 -35 -9 -44 -9 -48 6 -27 110 l17 85
-43 78 c-25 44 -45 96 -49 122 -4 37 -9 46 -27 48 -26 4 -25 7 -28 -108 -2
-83 -20 -185 -50 -287 -16 -55 -77 -126 -104 -121 -25 5 -41 88 -45 243 -2 77
-4 141 -5 143 0 1 -9 2 -20 2 -20 0 -31 -34 -31 -98 l0 -35 -84 6 c-91 6 -153
26 -163 53 -3 9 20 70 60 152 76 157 101 247 94 341 -5 71 -28 110 -70 125
-51 19 -161 -53 -243 -158 l-31 -39 -46 86 c-71 135 -112 180 -132 146z m196
-439 c29 -111 42 -233 37 -355 -3 -93 -8 -120 -29 -161 -33 -68 -56 -66 -91 6
-31 65 -51 188 -42 268 12 115 82 337 100 319 3 -3 14 -38 25 -77z"/>
<path d="M620 605 c-9 -11 -10 -19 -3 -26 17 -17 48 -6 48 16 0 25 -28 31 -45
10z"/>
<path d="M1091 611 c-19 -12 -6 -41 18 -41 23 0 34 23 18 39 -13 13 -18 13
-36 2z"/>
</g>
</svg>
